<svg xmlns="http://www.w3.org/2000/svg" viewBox="0 0 100 100"><path style="fill-opacity:1;fill-rule:nonzero;fill:#00a95b" d="M500 120a380 380 0 0 0-278.38 121.836A250 260 0 0 0 0 500a250 260 0 0 0 221.658 258.004A380 380 0 0 0 500 880a380 380 0 0 0 278.38-121.836A250 260 0 0 0 1000 500a250 260 0 0 0-221.658-258.004A380 380 0 0 0 500 120zm0 59.922c70.086 0 139.8 24.147 195.408 66.713a250 260 0 0 0-70.443 28.592C703.624 321.628 760.156 408.01 760.156 500c0 92.02-56.57 178.428-135.27 224.818a250 260 0 0 0 70.311 28.707c-55.573 42.466-125.2 66.553-195.197 66.553-70.086 0-139.8-24.147-195.408-66.713a250 260 0 0 0 70.443-28.592C296.376 678.372 239.844 591.99 239.844 500c0-92.02 56.57-178.428 135.27-224.818a250 260 0 0 0-70.311-28.707c55.573-42.466 125.2-66.553 195.197-66.553z" transform="scale(.1)"/></svg>
