<svg xmlns="http://www.w3.org/2000/svg" viewBox="0 0 100 100"><path style="fill-opacity:1;fill-rule:nonzero;fill:#0083ba" d="M500 0a100 100 0 0 0-100 100 100 100 0 0 0 40.203 80H60l100.572 160H80l420 660 420-660h-80.572L940 180H559.828A100 100 0 0 0 600 100 100 100 0 0 0 500 0zM97.709 200.008h804.582L500 840.004zM500 280c-20.834 0-41.538 8.57-56.27 23.3-14.731 14.732-23.3 35.437-23.3 56.27 0 20.834 8.569 41.538 23.3 56.27 14.732 14.732 35.436 23.3 56.27 23.3 20.834 0 41.538-8.568 56.27-23.3 14.731-14.732 23.3-35.436 23.3-56.27 0-20.833-8.569-41.538-23.3-56.27C541.538 288.57 520.834 280 500 280zm0 260c-31.345 0-59.863 28.519-59.863 59.863 0 31.345 28.518 59.864 59.863 59.864s59.863-28.52 59.863-59.864C559.863 568.52 531.345 540 500 540z" transform="scale(.1)"/></svg>
